# xmcd
# Track frame offsets:
# 150
# 16687
# 25570
# 37870
# 50650
# 70390
# 83397
# 98507
# 109862
# 126437
# 139962
# 155567
# 168267
# 183322
#
# Disc length: 2615 seconds
# Revision: 0
# Processed by: cddbd v1.4PL0 Copyright (c) Steve Scherf et al.
# Submitted via: VisiTrax 2.9.5.181 - For more info visit www.synapsa.com
#
DISCID=a80a350e
DTITLE=Jan Rasmussen - Bedre sent end aldrig 2
DYEAR=1995
DGENRE=Danish Country
TTITLE0=Se op mod solen
TTITLE1=Min egen Sussan
TTITLE2=Tårer på min pude
TTITLE3=Det er kun for dig
TTITLE4=Gamle ven
TTITLE5=Mon der findes en himmel
TTITLE6=Spørg himmelens stjerner
TTITLE7=Sommer, Solskin og varme
TTITLE8=Jeg ser dig vinke lille mor
TTITLE9=Det har regnet lige siden
TTITLE10=Hjælp mig kære venner
TTITLE11=En frisk lille pige
TTITLE12=I Østersøens favn
TTITLE13=Det var dig jeg holdt af
EXTD=
EXTT0=
EXTT1=
EXTT2=
EXTT3=
EXTT4=
EXTT5=
EXTT6=
EXTT7=
EXTT8=
EXTT9=
EXTT10=
EXTT11=
EXTT12=
EXTT13=
PLAYORDER=
